<svg xmlns="http://www.w3.org/2000/svg" viewBox="0 0 64 64">
  <defs>
    <linearGradient id="tl" x1="0" y1="0" x2="0.5" y2="1">
      <stop offset="0%" stop-color="#4cc9d0"/>
      <stop offset="100%" stop-color="#7bc67e"/>
    </linearGradient>
    <linearGradient id="tr" x1="0.5" y1="0" x2="1" y2="0.5">
      <stop offset="0%" stop-color="#e8833a"/>
      <stop offset="100%" stop-color="#f5b73b"/>
    </linearGradient>
    <linearGradient id="bl" x1="0" y1="0.5" x2="0.5" y2="1">
      <stop offset="0%" stop-color="#8cc63f"/>
      <stop offset="100%" stop-color="#b8d86a"/>
    </linearGradient>
    <linearGradient id="br" x1="0.5" y1="0.5" x2="1" y2="1">
      <stop offset="0%" stop-color="#f5c242"/>
      <stop offset="100%" stop-color="#f0a030"/>
    </linearGradient>
  </defs>
  <!-- Background quadrants -->
  <rect x="2" y="2" width="30" height="30" rx="8" fill="url(#tl)"/>
  <rect x="32" y="2" width="30" height="30" rx="8" fill="url(#tr)"/>
  <rect x="2" y="32" width="30" height="30" rx="8" fill="url(#bl)"/>
  <rect x="32" y="32" width="30" height="30" rx="8" fill="url(#br)"/>
  <!-- Rounded overlay -->
  <rect x="2" y="2" width="60" height="60" rx="14" fill="rgba(255,255,255,0.08)"/>
  <!-- Dog (left) -->
  <path d="M14,20 Q12,12 16,10 Q18,9 19,12 L20,16 Q22,12 26,14 Q30,17 28,24 Q27,28 24,30 L22,31 Q20,32 18,30 Q14,27 14,20Z" fill="white" opacity="0.92"/>
  <!-- Dog ear -->
  <path d="M14,20 Q11,14 13,10 Q15,8 17,11" fill="white" opacity="0.85"/>
  <!-- Dog nose -->
  <circle cx="27" cy="23" r="1.5" fill="#333" opacity="0.6"/>
  <!-- Cat (right) -->
  <path d="M44,22 Q42,14 46,12 L48,9 Q49,8 49,11 L49,14 Q52,10 54,11 L52,16 Q56,19 54,26 Q52,30 48,31 Q44,32 42,29 Q40,26 44,22Z" fill="white" opacity="0.92"/>
  <!-- Cat ear tips -->
  <path d="M46,12 L47,7 Q48,6 48.5,9Z" fill="white" opacity="0.9"/>
  <path d="M52,11 L53,7 Q54,6.5 53.5,10Z" fill="white" opacity="0.9"/>
  <!-- Cat nose -->
  <path d="M49,24 L48,25 L50,25Z" fill="#e88" opacity="0.7"/>
  <!-- Heart center -->
  <path d="M32,42 C32,42 24,36 24,31 C24,28.5 26,27 28,27 C29.5,27 31,28.5 32,30 C33,28.5 34.5,27 36,27 C38,27 40,28.5 40,31 C40,36 32,42 32,42Z" fill="white"/>
  <!-- Body curves -->
  <path d="M20,32 Q18,40 22,48 Q26,52 30,48 Q32,44 32,42" fill="white" opacity="0.88" stroke="none"/>
  <path d="M44,32 Q46,40 42,48 Q38,52 34,48 Q32,44 32,42" fill="white" opacity="0.88" stroke="none"/>
</svg>
