<svg xmlns="http://www.w3.org/2000/svg" viewBox="0 0 48 48">
  <defs>
    <linearGradient id="a" x1="0" y1="0" x2="0.5" y2="1">
      <stop offset="0%" stop-color="#4cc9d0"/>
      <stop offset="100%" stop-color="#7bc67e"/>
    </linearGradient>
    <linearGradient id="b" x1="0.5" y1="0" x2="1" y2="0.5">
      <stop offset="0%" stop-color="#e8833a"/>
      <stop offset="100%" stop-color="#f5b73b"/>
    </linearGradient>
    <linearGradient id="c" x1="0" y1="0.5" x2="0.5" y2="1">
      <stop offset="0%" stop-color="#8cc63f"/>
      <stop offset="100%" stop-color="#b8d86a"/>
    </linearGradient>
    <linearGradient id="d" x1="0.5" y1="0.5" x2="1" y2="1">
      <stop offset="0%" stop-color="#f5c242"/>
      <stop offset="100%" stop-color="#f0a030"/>
    </linearGradient>
  </defs>
  <rect x="1" y="1" width="22" height="22" rx="6" fill="url(#a)"/>
  <rect x="25" y="1" width="22" height="22" rx="6" fill="url(#b)"/>
  <rect x="1" y="25" width="22" height="22" rx="6" fill="url(#c)"/>
  <rect x="25" y="25" width="22" height="22" rx="6" fill="url(#d)"/>
  <rect x="1" y="1" width="46" height="46" rx="11" fill="rgba(255,255,255,0.06)"/>
  <!-- Dog -->
  <path d="M10,15 Q8,9 11,7 Q13,6 14,9 L15,12 Q17,9 20,11 Q23,13 21,18 Q20,21 18,23 L16,24 Q14,24 13,22 Q10,20 10,15Z" fill="white" opacity="0.93"/>
  <path d="M10,15 Q8,11 10,7 Q11.5,5.5 13,8" fill="white" opacity="0.85"/>
  <circle cx="20" cy="17" r="1" fill="#555" opacity="0.5"/>
  <!-- Cat -->
  <path d="M33,16 Q31,10 35,9 L36.5,6 Q37.5,5 37.5,8 L37.5,10 Q40,7 41.5,8 L40,12 Q43,14 41,20 Q39,23 36,24 Q33,24 32,22 Q30,19 33,16Z" fill="white" opacity="0.93"/>
  <path d="M35,9 L35.5,5 Q36.5,4 36.8,7Z" fill="white" opacity="0.9"/>
  <path d="M40,8 L41,4.5 Q42,4 41.2,7.5Z" fill="white" opacity="0.9"/>
  <path d="M37.5,18 L37,19 L38,19Z" fill="#e88" opacity="0.6"/>
  <!-- Heart -->
  <path d="M24,32 C24,32 18,27 18,23.5 C18,21.5 19.5,20.5 21,20.5 C22.2,20.5 23.5,21.5 24,23 C24.5,21.5 25.8,20.5 27,20.5 C28.5,20.5 30,21.5 30,23.5 C30,27 24,32 24,32Z" fill="white"/>
  <!-- Bodies -->
  <path d="M15,24 Q13,30 16,36 Q19,39 22,36 Q24,33 24,32" fill="white" opacity="0.88"/>
  <path d="M33,24 Q35,30 32,36 Q29,39 26,36 Q24,33 24,32" fill="white" opacity="0.88"/>
</svg>
